<svg width="33" height="33" viewBox="0 0 33 33" fill="none" xmlns="http://www.w3.org/2000/svg">
<path d="M16.8137 24.732L23.1137 28.7341C23.9262 29.2469 24.9262 28.484 24.6887 27.546L22.8637 20.3671C22.8143 20.1682 22.8222 19.9593 22.8863 19.7645C22.9505 19.5698 23.0683 19.3972 23.2262 19.2666L28.8762 14.5515C29.6137 13.9387 29.2387 12.7005 28.2762 12.638L20.9012 12.1628C20.7 12.151 20.5065 12.0809 20.3445 11.961C20.1824 11.8411 20.0588 11.6765 19.9887 11.4874L17.2387 4.5587C17.1659 4.35847 17.0333 4.1855 16.8589 4.06328C16.6844 3.94105 16.4766 3.87549 16.2637 3.87549C16.0507 3.87549 15.843 3.94105 15.6685 4.06328C15.4941 4.1855 15.3615 4.35847 15.2887 4.5587L12.5387 11.4874C12.4686 11.6765 12.345 11.8411 12.1829 11.961C12.0209 12.0809 11.8274 12.151 11.6262 12.1628L4.2512 12.638C3.2887 12.7005 2.9137 13.9387 3.6512 14.5515L9.3012 19.2666C9.45912 19.3972 9.57693 19.5698 9.64106 19.7645C9.7052 19.9593 9.71304 20.1682 9.6637 20.3671L7.9762 27.0207C7.6887 28.1463 8.8887 29.0593 9.8512 28.4465L15.7137 24.732C15.8781 24.6274 16.0689 24.5718 16.2637 24.5718C16.4585 24.5718 16.6493 24.6274 16.8137 24.732V24.732Z" fill="#EEB539" stroke="black" stroke-width="2" stroke-linecap="round" stroke-linejoin="round"/>
</svg>
